# xmcd
#
# Track frame offsets: 
#        182
#        22062
#        51690
#        81962
#        106390
#        130592
#        216777
#        237825
#        253880
#        278315
#        300815
#        324432
#
# Disc length: 4597 seconds
#
# Revision: 3
# Processed by: cddbd v1.5.2PL0 Copyright (c) Steve Scherf et al.
# Submitted via: ExactAudioCopyFreeDBPlugin 1.0
#
DISCID=9f11f30c
DTITLE=The Isley Brothers - Live!
DYEAR=1993
DGENRE=Rhythm and Blues
TTITLE0=Here We Go Again
TTITLE1=Between the Sheets
TTITLE2=Smooth Sailin' Tonight
TTITLE3=Voyage to Atlantis
TTITLE4=Take Me to the Next Phase
TTITLE5=Medley:  Choosey Lover - Footsteps in the Dark - Groove with Y
TTITLE5=ou - Hello, It's Me - Don't Say Goodnight (It's Time for Love)
TTITLE5=Spend the Night (Ce Soir)
TTITLE6=Who's That Lady
TTITLE7=It's Your Thing
TTITLE8=Shout
TTITLE9=For the Love of You
TTITLE10=Fight the Power
TTITLE11=Make Me Say it Again
EXTD=\n YEAR: 1993
EXTT0=
EXTT1=
EXTT2=
EXTT3=
EXTT4=
EXTT5=
EXTT6=
EXTT7=
EXTT8=
EXTT9=
EXTT10=
EXTT11=
PLAYORDER=
